Shark Night [2011].
--------------------------------------------------
Screen Shots.

[img]http://www.pix2links.com/images/13731535148249474153.jpg[/img]
        
[img]http://www.pix2links.com/images/27226156233887008828.jpg[/img]
        
[img]http://www.pix2links.com/images/01281229377988582998.jpg[/img]
        
[img]http://www.pix2links.com/images/97105633411115651794.jpg[/img]


-----------------------------------------------------


Info. 



Format                         : MPEG-4
Format profile                 : Base Media
Codec ID                       : isom
IMDB Link                      : http://www.imdb.com/title/tt1633356/
IMDB Rating                    : 5.5 / 10 
File size                      : 961 MiB
Duration                       : 1h 17mn
Overall bit rate               : 1 726 Kbps
Encoded date                   : UTC 2011-09-03 01:53:30
Tagged date                    : UTC 2011-09-03 01:53:30


Video.


ID                             : 1
Format                         : AVC
Format/Info                    : Advanced Video Codec
Format profile                 : High@L4.1
Format settings, CABAC         : Yes
Format settings, ReFrames      : 3 frames
Codec ID                       : avc1
Codec ID/Info                  : Advanced Video Coding
Duration                       : 1h 17mn
Bit rate                       : 1 500 Kbps
Maximum bit rate               : 7 661 Kbps
Width                          : 720 pixels
Height                         : 272 pixels
Display aspect ratio           : 2.647
Frame rate mode                : Constant
Frame rate                     : 25.000 fps
Color space                    : YUV
Chroma subsampling             : 4:2:0
Bit depth                      : 8 bits
Scan type                      : Progressive
Bits/(Pixel*Frame)             : 0.306
Stream size                    : 835 MiB (87%)
Writing library                : x264 core 75 r1251kMod e553a4c
Encoding settings              : cabac=1 / ref=3 / deblock=1:0:0 / analyse=0x3:0x113 
/ me=umh / subme=7 / psy=1 / psy_rd=1.0:0.0 / mixed_ref=1 / me_range=12 
/ chroma_me=1 / trellis=2 / 8x8dct=1 / cqm=0 / deadzone=21,11 / chroma_qp_offset=-2 
/ threads=3 / nr=0 / decimate=1 / mbaff=0 / bframes=3 / b_pyramid=0 / b_adapt=2 
/ b_bias=0 / direct=1 / wpredb=1 / keyint=250 / keyint_min=25 / scenecut=40 
/ rc_lookahead=60 / rc=cbr / mbtree=1 / bitrate=1500 / ratetol=1.0 / qcomp=0.50 
/ qpmin=10 / qpmax=51 / qpstep=4 / vbv_maxrate=24000 / vbv_bufsize=24000 / ip_ratio=1.40 
/ aq=1:1.00
Encoded date                   : UTC 2011-09-03 01:53:30
Tagged date                    : UTC 2011-09-03 01:54:18

 
 
Audio. 


ID                             : 2
Format                         : AAC
Format/Info                    : Advanced Audio Codec
Format profile                 : LC
Codec ID                       : 40
Duration                       : 1h 17mn
Bit rate mode                  : Variable
Bit rate                       : 224 Kbps
Maximum bit rate               : 283 Kbps
Channel(s)                     : 2 channels
Channel positions              : Front: L R
Sampling rate                  : 44.1 KHz
Compression mode               : Lossy
Stream size                    : 125 MiB (13%)
Encoded date                   : UTC 2011-09-03 01:54:16
Tagged date                    : UTC 2011-09-03 01:54:18

-------------------------------------------------

SEED After Download. 

Thank You .

ENjOY ..!!!